<?xml version="1.0" standalone="no"?>
<!DOCTYPE svg PUBLIC "-//W3C//DTD SVG 20010904//EN"
 "http://www.w3.org/TR/2001/REC-SVG-20010904/DTD/svg10.dtd">
<svg version="1.0" xmlns="http://www.w3.org/2000/svg"
 width="300.000000pt" height="72.000000pt" viewBox="0 0 300.000000 72.000000"
 preserveAspectRatio="xMidYMid meet">
<metadata>
Created by potrace 1.10, written by Peter Selinger 2001-2011
</metadata>
<g transform="translate(0.000000,72.000000) scale(0.100000,-0.100000)"
fill="#000000" stroke="none">
<path d="M186 710 c-34 -11 -89 -61 -121 -110 -40 -63 -82 -236 -50 -210 7 6
16 30 19 53 4 23 13 55 19 71 11 24 13 4 12 -130 0 -87 3 -181 8 -209 7 -47 6
-48 -7 -25 -8 14 -20 53 -27 88 -16 80 -39 104 -32 35 11 -116 68 -224 136
-256 39 -19 159 -23 201 -7 14 5 43 26 65 46 39 35 41 39 41 95 l0 59 35 0
c19 0 35 5 35 10 0 6 -45 10 -115 10 -70 0 -115 -4 -115 -10 0 -5 18 -10 40
-10 l40 0 0 -60 c0 -66 -18 -113 -49 -130 -11 -5 -43 -10 -71 -10 -46 0 -56 4
-85 33 -55 55 -70 123 -70 317 0 188 13 245 70 305 27 30 39 35 76 35 80 0
146 -63 174 -167 13 -48 13 -47 13 62 1 72 -2 103 -8 89 -14 -35 -26 -36 -72
-4 -47 33 -114 45 -162 30z m234 -559 c0 -28 -4 -53 -10 -56 -6 -4 -10 15 -10
49 0 31 5 56 10 56 6 0 10 -22 10 -49z"/>
<path d="M490 698 c0 -5 16 -8 35 -8 l35 0 0 -335 0 -335 -35 0 c-19 0 -35 -3
-35 -7 0 -5 101 -7 225 -5 l225 3 0 84 c0 46 3 90 6 99 3 9 2 16 -4 16 -5 0
-12 -26 -15 -57 -11 -104 -53 -131 -199 -132 l-88 -1 0 165 0 165 50 0 c64 0
90 -23 90 -80 0 -22 5 -40 10 -40 6 0 10 52 10 135 0 83 -4 135 -10 135 -5 0
-10 -16 -10 -36 0 -36 -15 -73 -34 -86 -6 -4 -32 -8 -58 -8 l-48 0 0 160 0
160 75 0 c122 0 170 -32 182 -120 3 -22 10 -40 15 -40 6 0 8 10 4 23 -3 12 -6
50 -6 84 l0 62 -210 3 c-116 2 -210 0 -210 -4z m122 -185 c5 -241 -2 -483 -12
-483 -6 0 -10 124 -10 320 0 196 4 320 10 320 5 0 10 -67 12 -157z"/>
<path d="M1350 698 c0 -5 13 -8 29 -8 16 0 34 -6 40 -14 8 -9 11 -84 9 -249
l-3 -235 -142 252 -141 251 -89 1 c-48 0 -69 -1 -45 -3 l42 -4 0 -323 c0 -349
1 -341 -55 -348 -16 -2 9 -6 58 -9 48 -2 87 -1 87 4 0 4 -13 7 -29 7 -16 0
-34 6 -40 14 -8 9 -11 101 -9 316 l3 303 92 -164 c223 -400 265 -475 274 -483
5 -6 9 113 9 318 0 206 4 334 10 347 7 12 21 19 40 19 17 0 30 3 30 8 0 4 -38
7 -85 7 -47 0 -85 -3 -85 -7z m-222 -40 c5 -7 62 -107 127 -223 64 -116 126
-223 137 -238 12 -17 18 -40 16 -61 -3 -30 -20 -3 -158 241 -85 151 -156 279
-158 284 -5 14 24 11 36 -3z"/>
<path d="M1803 703 l-232 -3 -3 -101 c-2 -56 0 -103 5 -106 4 -2 7 15 7 39 0
62 18 116 43 133 13 8 48 16 80 17 l57 3 2 -332 3 -332 -45 -3 c-25 -2 10 -6
78 -8 67 -3 122 -2 122 3 0 4 -18 7 -40 7 l-40 0 0 336 0 337 56 -6 c94 -10
122 -40 125 -138 1 -27 6 -52 11 -55 4 -3 8 45 8 105 0 61 -1 110 -2 109 -2
-2 -107 -4 -235 -5z m4 -515 c-1 -90 -3 -17 -3 162 0 179 2 252 3 163 2 -90 2
-236 0 -325z"/>
<path d="M2083 698 c-2 -5 14 -8 36 -8 l41 0 0 -334 0 -335 -42 -3 c-24 -2 12
-6 80 -8 67 -3 122 -2 122 3 0 4 -18 7 -40 7 l-40 0 0 168 0 167 54 -3 c82 -6
93 -22 111 -170 15 -134 24 -158 61 -172 44 -17 114 -10 114 11 0 6 -10 5 -21
-2 -37 -19 -50 7 -64 134 -15 143 -31 175 -98 198 l-47 16 39 12 c87 26 129
91 118 184 -7 56 -25 89 -64 114 -22 15 -57 19 -191 23 -90 3 -166 2 -169 -2z
m272 -22 c20 -9 41 -28 51 -48 23 -44 24 -151 1 -194 -18 -36 -77 -64 -132
-64 l-35 0 0 160 0 160 40 0 c22 0 56 -6 75 -14z m-146 -481 c-4 -126 -5 -85
-5 155 0 222 2 276 5 170 4 -85 3 -231 0 -325z m257 410 c18 -45 18 -98 -1
-135 -9 -17 -17 -30 -18 -30 -1 0 -1 35 1 79 3 46 -1 87 -7 100 -8 15 -9 21
-1 21 6 0 18 -16 26 -35z m0 -454 c7 -64 10 -118 8 -120 -9 -10 -33 70 -39
134 -3 39 -8 88 -11 110 l-6 40 18 -24 c11 -16 21 -62 30 -140z"/>
<path d="M2500 698 c0 -4 16 -8 36 -10 l35 -3 66 -190 66 -190 6 -142 6 -142
-45 -4 c-25 -2 14 -3 85 -3 72 0 109 1 83 3 l-48 4 0 120 0 120 70 201 c39
111 75 207 81 214 6 7 23 14 37 16 15 3 -10 6 -56 9 -45 2 -82 1 -82 -3 0 -5
11 -8 24 -8 51 0 50 -18 -9 -192 -30 -89 -58 -169 -61 -177 -2 -8 -31 64 -63
160 -33 96 -62 182 -66 192 -6 14 -1 17 31 17 20 0 35 3 32 6 -9 8 -228 10
-228 2z m154 -75 c9 -27 38 -112 64 -189 l47 -141 -3 -134 c-4 -162 -22 -158
-22 5 0 108 -1 111 -65 298 -36 104 -65 194 -65 199 0 5 6 9 14 9 8 0 21 -21
30 -47z"/>
</g>
</svg>
