<?xml version="1.0" encoding="UTF-8"?>
<svg xmlns="http://www.w3.org/2000/svg" xmlns:figma="http://www.figma.com/figma/ns" xmlns:xlink="http://www.w3.org/1999/xlink" width="200.000000pt" height="200.000000pt" viewBox="0 0 200 200"">
<title>Logo</title>
<g transform="translate(0.000000,200.000000) scale(0.100000,-0.100000)" fill="#000000" stroke="none" figma:type="canvas">
      <g style="mix-blend-mode:normal" figma:type="vector" transform="translate(1470)" fill="#f40">
         <use xlink:href="#b" style="mix-blend-mode:normal" />
         <use xlink:href="#c" style="mix-blend-mode:normal" />
         <use xlink:href="#d" style="mix-blend-mode:normal" />
         <use xlink:href="#e" style="mix-blend-mode:normal" />
         <use xlink:href="#f" style="mix-blend-mode:normal" />
      </g>
   </g>
<path d="M100 1000 l0 -250 900 0 900 0 0 250 0 250 -900 0 -900 0 0 -250z
m928 221 c13 -1 20 -5 17 -11 -4 -6 7 -10 25 -10 17 0 29 -4 25 -9 -10 -17 11
-21 113 -24 88 -3 105 -7 140 -29 21 -14 39 -33 39 -42 0 -9 -5 -15 -11 -13
-6 3 -10 9 -9 15 2 6 -10 20 -26 31 -24 18 -47 21 -155 23 -69 2 -126 5 -126
9 0 3 5 10 12 17 9 9 7 12 -10 12 -13 0 -34 7 -47 16 -25 16 -25 16 -13 -7 7
-14 23 -39 36 -56 19 -26 21 -36 12 -53 -6 -11 -19 -20 -29 -20 -27 0 -46 -26
-25 -34 9 -4 14 -9 10 -13 -3 -4 -18 4 -33 18 -21 19 -25 20 -20 6 4 -10 3
-16 -3 -12 -5 3 -20 -1 -34 -10 -16 -11 -25 -12 -28 -5 -6 19 -36 0 -40 -25
-4 -18 0 -25 19 -29 37 -10 27 -22 -15 -18 -35 3 -40 7 -48 40 -6 25 -14 36
-25 34 -9 -1 -31 4 -50 12 -30 13 -37 12 -71 -5 -20 -10 -48 -19 -61 -19 -13
0 -32 -8 -41 -19 -16 -17 -16 -19 6 -26 22 -8 22 -8 -5 -12 -55 -8 -60 1 -32
57 14 27 32 50 39 50 8 0 29 18 46 41 l32 40 -28 -7 c-16 -4 -47 -20 -68 -35
-47 -34 -71 -37 -86 -10 -17 33 -11 48 9 24 11 -13 22 -23 26 -23 3 0 25 13
49 29 46 32 119 56 144 46 9 -3 47 -3 84 1 53 5 68 10 64 20 -4 10 3 14 25 14
17 0 28 4 24 9 -3 5 5 11 17 13 21 3 38 3 126 -1z m-213 -13 c-11 -7 -65 -15
-120 -18 -91 -5 -104 -8 -146 -38 -41 -28 -48 -30 -60 -16 -21 26 -54 13 -57
-22 -2 -25 3 -37 24 -53 15 -11 32 -21 40 -21 10 0 9 -9 -3 -40 -15 -37 -15
-41 2 -60 23 -26 67 -26 91 1 15 17 16 22 4 29 -12 8 -12 9 0 13 8 2 36 11 62
20 42 14 51 14 85 1 22 -9 46 -28 56 -46 9 -16 26 -32 37 -35 25 -7 27 -25 3
-21 -15 2 -19 -6 -22 -42 l-5 -45 -6 45 -7 45 -1 -42 c-2 -54 -22 -57 -22 -3
0 33 -3 40 -20 40 -11 0 -20 4 -20 8 0 13 -47 32 -80 32 -66 0 -103 -36 -81
-78 7 -12 7 -22 0 -29 -11 -11 -2 -43 13 -43 5 0 7 -4 4 -8 -2 -4 -17 -7 -33
-6 -15 1 -117 2 -225 3 l-198 1 0 220 0 220 353 0 c275 -1 348 -3 332 -12z
m1055 -208 l0 -220 -220 0 -220 0 0 59 c0 52 -3 61 -21 66 -26 9 -28 7 -31
-41 -2 -26 -8 -39 -18 -39 -20 0 -27 65 -8 77 8 5 1 6 -17 1 -16 -4 -39 -6
-50 -5 -50 5 -217 3 -222 -1 -3 -3 -6 -19 -7 -34 -1 -30 -21 -44 -21 -15 0 9
-6 16 -14 14 -8 -2 -11 3 -8 12 3 8 -1 17 -9 20 -25 10 -79 7 -91 -5 -13 -13
-24 33 -12 53 5 7 1 20 -8 30 -15 17 -15 18 5 18 11 0 23 4 26 9 11 16 45 19
72 5 15 -8 35 -12 43 -9 11 3 10 0 -3 -10 -10 -8 -23 -16 -29 -18 -5 -1 -7
-12 -3 -23 5 -16 13 -19 53 -17 29 2 53 9 59 18 6 8 19 15 28 15 9 0 16 4 16
10 0 5 -7 7 -15 4 -32 -13 -13 17 20 30 37 16 78 10 120 -18 18 -12 25 -12 28
-3 2 6 8 9 12 4 5 -4 3 -13 -3 -19 -25 -25 -13 -38 37 -38 28 0 53 5 56 10 4
6 11 8 16 5 9 -6 2 21 -11 40 -3 6 -11 22 -17 36 -11 25 -10 27 14 27 35 0 55
24 57 69 1 32 -2 38 -21 39 -12 1 -21 -3 -20 -8 1 -6 -6 -15 -15 -21 -14 -9
-22 -7 -40 10 -35 33 -102 53 -162 49 -66 -5 -103 2 -110 20 -5 12 54 14 379
14 l385 0 0 -220z m-645 136 c81 -1 147 -17 132 -33 -3 -3 -16 2 -29 11 -12 9
-26 16 -31 16 -14 0 32 -58 52 -65 21 -6 67 -98 57 -114 -4 -6 -26 -11 -48
-11 -39 0 -40 1 -25 18 25 27 21 42 -12 42 -17 0 -45 9 -65 20 -32 20 -37 20
-71 6 -20 -9 -41 -15 -47 -13 -6 1 -16 -14 -23 -33 -12 -37 -29 -44 -82 -38
l-28 3 33 18 c17 10 32 24 32 33 0 19 -30 30 -40 14 -4 -6 -10 -8 -13 -3 -13
20 9 34 37 23 24 -9 28 -15 24 -40 -7 -48 18 -36 32 15 10 36 15 43 26 34 9
-8 23 -7 48 2 31 11 41 10 71 -4 20 -9 48 -17 63 -17 19 0 33 -9 47 -30 30
-45 38 -36 13 15 -12 25 -27 45 -34 45 -7 0 -27 19 -45 41 -18 23 -35 37 -37
30 -2 -7 3 -18 12 -24 22 -16 11 -51 -13 -41 -30 13 -81 16 -94 6 -7 -6 -23
-9 -35 -6 -17 5 -22 1 -28 -21 -6 -23 -8 -25 -16 -11 -5 9 -15 16 -23 16 -10
0 -8 10 8 41 18 33 19 43 8 46 -22 9 10 24 34 16 11 -4 61 -7 110 -7z m239
-18 c-10 -53 -63 -79 -70 -35 -1 10 3 16 9 14 6 -2 22 9 35 25 13 15 26 28 28
28 2 0 1 -15 -2 -32z m-159 -69 c-4 -5 -1 -9 6 -9 7 0 10 -3 6 -6 -12 -12 -37
5 -31 21 3 8 10 12 15 9 5 -3 7 -10 4 -15z m-596 -143 c7 -9 8 -17 3 -20 -6
-3 -12 1 -16 9 -6 17 -58 20 -87 4 -27 -14 -14 -29 26 -29 73 0 115 -43 66
-70 -22 -11 -80 -13 -105 -4 -19 7 -21 33 -3 36 39 5 87 2 87 -6 0 -4 -18 -6
-40 -4 -22 2 -40 0 -40 -4 0 -5 23 -8 51 -8 43 0 50 3 47 18 -2 12 -14 18 -38
20 -66 5 -80 11 -80 36 0 12 3 26 7 29 13 13 110 7 122 -7z m171 -22 l0 -36
34 21 c18 12 40 21 47 21 8 0 -3 -11 -24 -23 l-39 -24 27 -17 c31 -20 48 -13
19 9 -10 8 -14 15 -8 15 16 0 37 -27 30 -39 -4 -6 3 -15 15 -21 11 -7 19 -14
16 -16 -5 -5 -42 14 -85 44 l-32 23 0 -25 c0 -14 -3 -26 -8 -26 -4 0 -8 29 -9
65 -2 37 2 65 7 65 6 0 10 -16 10 -36z m-197 -1 c-7 -2 -21 -2 -30 0 -10 3 -4
5 12 5 17 0 24 -2 18 -5z m72 -30 c0 -37 1 -38 35 -38 33 0 35 2 38 38 5 54
22 45 22 -11 0 -48 0 -49 -32 -50 -67 -2 -76 4 -80 53 -2 26 1 45 7 45 5 0 10
-17 10 -37z m245 -4 c0 -39 1 -40 33 -37 29 3 32 6 35 41 5 54 22 46 22 -11
l0 -48 -42 -1 c-23 -1 -48 3 -55 9 -15 12 -18 88 -3 88 6 0 10 -18 10 -41z
m278 29 c6 -6 12 -28 12 -49 0 -23 5 -39 12 -39 6 0 9 -2 6 -5 -3 -3 -13 -3
-22 1 -11 4 -16 18 -16 44 0 39 -16 55 -45 44 -10 -4 -15 -20 -15 -45 0 -21
-4 -39 -10 -39 -5 0 -10 18 -10 39 0 41 -12 53 -45 41 -16 -5 -19 -14 -17 -43
2 -21 -1 -37 -6 -37 -6 0 -12 22 -14 49 l-3 48 80 1 c44 0 86 -4 93 -10z m47
-25 c0 -37 1 -38 35 -38 33 0 35 2 38 38 5 54 22 45 22 -11 0 -48 0 -49 -32
-50 -67 -2 -76 4 -80 53 -2 26 1 45 7 45 5 0 10 -17 10 -37z m-155 -26 c0 -18
5 -38 11 -44 8 -8 4 -11 -15 -10 -17 1 -24 7 -21 15 3 8 5 27 5 43 0 16 5 29
10 29 6 0 10 -15 10 -33z m80 9 c0 -13 3 -31 6 -40 4 -12 0 -16 -16 -16 -18 0
-21 4 -16 23 3 12 6 30 6 40 0 9 5 17 10 17 6 0 10 -11 10 -24z m-511 -50 c10
-12 8 -13 -8 -9 -12 3 -18 9 -15 14 7 12 10 11 23 -5z m190 0 c10 -12 8 -13
-8 -9 -12 3 -21 9 -21 14 0 14 16 11 29 -5z"/>
<path d="M889 1156 c-33 -50 -34 -55 -19 -73 8 -11 28 -22 43 -25 23 -4 25 -3
15 9 -6 8 -17 12 -24 9 -8 -3 -19 4 -25 15 -9 17 -7 26 13 48 29 33 51 71 40
71 -4 0 -24 -24 -43 -54z"/>
<path d="M1431 1004 c0 -11 3 -14 6 -6 3 7 2 16 -1 19 -3 4 -6 -2 -5 -13z"/>
<path d="M1427 1090 c-9 -11 -13 -20 -7 -20 5 0 14 9 20 20 6 11 9 20 8 20 -2
0 -11 -9 -21 -20z"/>
</g>
</svg>
